<svg viewBox="0 0 100 100" xmlns="http://www.w3.org/2000/svg" class="hide"><symbol viewBox="0 0 100 100" id="icon__drummond-logo"><title>drummond-logo</title><path d="M49.999.447c-27.447 0-49.694 22.185-49.694 49.553 0 27.37 22.248 49.554 49.694 49.554 27.444 0 49.696-22.185 49.696-49.554 0-27.368-22.252-49.553-49.696-49.553zm.005 79.8c-16.7 0-30.244-13.539-30.244-30.242 0-16.706 13.544-30.245 30.244-30.245s30.247 13.54 30.247 30.245c0 16.703-13.547 30.242-30.247 30.242zM64.332 50.005c0 7.913-6.415 14.324-14.324 14.324-7.914 0-14.33-6.411-14.33-14.324s6.416-14.326 14.33-14.326c7.909 0 14.324 6.413 14.324 14.326z"/></symbol><symbol viewBox="0 0 100 100" id="icon__facebook"><title>facebook</title><path d="M43 76.976h11.146v-26.979h7.436l.984-9.296h-8.42l.011-4.654c0-2.423.233-3.724 3.71-3.724h4.647v-9.297h-7.437c-8.933 0-12.077 4.511-12.077 12.094v5.582h-5.569v9.297h5.569v26.977zm7 22.609c-27.384 0-49.585-22.2-49.585-49.585 0-27.386 22.201-49.585 49.585-49.585 27.385 0 49.585 22.199 49.585 49.585 0 27.385-22.2 49.585-49.585 49.585z"/></symbol><symbol viewBox="0 0 100 100" id="icon__google-plus"><title>google-plus</title><path d="M50 99.667c27.432 0 49.667-22.235 49.667-49.667 0-27.43-22.235-49.667-49.667-49.667-27.43 0-49.667 22.237-49.667 49.667 0 27.432 22.237 49.667 49.667 49.667z"/><path fill="#fff" d="M75.646 47.46v-5.972h-4.26v5.972h-6.139v4.268h6.139v6.147h4.26v-6.147h5.962v-4.268h-5.962zm-31.012-.339v6.826s6.609-.008 9.305-.008c-1.461 4.426-3.727 6.838-9.305 6.838-5.646 0-10.053-4.586-10.053-10.243s4.407-10.241 10.053-10.241c2.985 0 4.912 1.051 6.68 2.515 1.416-1.417 1.297-1.621 4.898-5.027-3.055-2.789-7.12-4.488-11.578-4.488-9.504 0-17.21 7.719-17.21 17.241 0 9.519 7.706 17.241 17.21 17.241 14.203 0 17.678-12.396 16.526-20.654h-16.526z"/></symbol><symbol viewBox="0 0 100 100" id="icon__home"><title>home</title><path d="M49.4 65.1c-0.1 1.2 0 2.1-0.2 3 -0.3 2.5-3.1 3.8-5.1 2.2 -2.9-2.3-5.7-4.7-8.4-7.2 -1.6-1.4-1.5-3.6 0.2-5 2.6-2.2 5.2-4.4 7.7-6.7 1.1-1 2.3-1.4 3.7-0.8 1.5 0.6 2 1.8 2 3.3 0 0.4 0 0.9 0.1 1.6 1 0 2.1 0 3.1 0 1.5 0 3.1 0 4.6 0 7 0 12.1 5.1 12.2 12.1 0 4.7 0 9.4 0 14 0 3.7 1.9 5.6 5.5 5.6 3.3 0 6.7 0 10 0 1.9 0 2.8-0.8 2.8-2.8 0-10.4 0-20.8 0-31.2 0-1.6-0.5-3-1.7-4.1C74.5 37.6 63 26.1 51.6 14.7c-2-2-4.4-1.8-6.6 0.4 -7.8 7.8-15.5 15.5-23.3 23.3 -0.5 0.5-1 1.1-1.6 1.5 -1.9 1.6-4.5 1.5-6.3-0.1 -1.9-1.7-2.1-4.4-0.6-6.4 0.4-0.5 0.8-0.9 1.2-1.3 8-8 15.9-16 23.9-23.9C44.4 2 52.4 2 58.6 8.1c11.2 11.2 22.4 22.3 33.6 33.5 3.3 3.3 5 7.2 4.9 11.9 -0.1 10.2 0 20.5 0 30.7 0 6.8-4.4 11.9-11.3 12.4 -4.5 0.3-9 0.3-13.4-0.1 -7.2-0.7-12.5-6.8-12.6-14.1 -0.1-4.7 0-9.4 0-14 0-2.6-0.7-3.4-3.3-3.4C54.2 65.1 51.9 65.1 49.4 65.1z"/><path d="M8.3 95c-2.6 0-4.8-2.1-4.8-4.8L3.5 49.9c0-2.9 1.3-6.5 3.2-8.7l8.8-10.3c1.7-2 4.7-2.3 6.7-0.5 2 1.7 2.3 4.7 0.5 6.7L14 47.4c-0.4 0.5-0.9 1.9-0.9 2.5l0.1 40.3C13.1 92.9 11 95 8.3 95 8.3 95 8.3 95 8.3 95z"/></symbol><symbol viewBox="0 0 100 100" id="icon__menu"><title>menu</title><rect x="13.7" y="64.1" width="71.6" height="4.8"/><rect x="13.7" y="47.7" width="71.6" height="4.8"/><rect x="13.7" y="31.3" width="71.6" height="4.8"/></symbol><symbol viewBox="0 0 100 100" id="icon__rss-feed"><title>rss-feed</title> <path d="M50,0.446C22.581,0.446,0.446,22.581,0.446,50c0,27.42,22.134,49.554,49.554,49.554c27.42,0,49.554-22.134,49.554-49.554
	C99.554,22.581,77.42,0.446,50,0.446L50,0.446z M36.369,71.491c-3.643,0-6.539-2.988-6.539-6.538c0-3.644,2.989-6.632,6.539-6.632
	c3.643,0,6.632,2.988,6.632,6.632C43,68.503,40.012,71.491,36.369,71.491L36.369,71.491z M53.37,71.117
	c-0.095-6.164-2.523-11.956-6.914-16.347c-4.39-4.389-10.088-6.818-16.253-6.911v-8.594c17.467,0.187,31.666,14.385,31.852,31.852
	H53.37z M70.275,71.117c-0.279-22.044-18.027-39.885-39.978-40.071v-8.594c26.621,0.094,48.385,21.857,48.572,48.665H70.275z"/> </symbol><symbol viewBox="0 0 200 100" id="icon__scale"><title>scale</title><path d="M1.2 42.8c9.3 0 19.2 0 29.4 0 0-6.4 0-12.7-0.1-19.2 13.7 8.8 27.1 17.5 40.9 26.4 -13.7 8.8-27.2 17.6-40.8 26.3 0-6.4 0-12.7 0-19.1C20.5 57.3 10.7 57.3 1 57.4 1.1 52.3 1.1 47.7 1.2 42.8zM169.1 56.7c0 6.7 0 12.9 0 19.5 -13.7-8.8-27.2-17.5-40.9-26.4 13.7-8.8 27.2-17.5 40.9-26.4 -0.1 6.5-0.3 12.8-0.4 19.3 10.5 0 20.4 0 30.3 0 0 4.7 0 9.3 0 13.9C189.2 56.8 179.3 56.8 169.1 56.7z"/></symbol><symbol viewBox="0 0 183.2 40.7" id="icon__toolbar"><title>toolbar</title><line fill="none" stroke-width="5" stroke-linecap="round" stroke-miterlimit="10" x1="126.6" y1="10.6" x2="152.4" y2="10.6"/><line fill="none" stroke-width="5" stroke-linecap="round" stroke-miterlimit="10" x1="79.7" y1="10.6" x2="105.5" y2="10.6"/><line fill="none" stroke-width="5" stroke-linecap="round" stroke-miterlimit="10" x1="30.1" y1="10.6" x2="55.8" y2="10.6"/><polyline fill="none" stroke-width="5" stroke-linecap="round" stroke-miterlimit="10" points="1.5 1.5 1.5 25.2 75.9 25.2 91.4 38.7 106.7 25.2 181.7 25.2 181.7 2 "/></symbol><symbol viewBox="0 0 100 100" id="icon__twitter"><title>twitter</title><path d="M56.897 30.605c-4.335 1.577-7.075 5.646-6.763 10.099l.105 1.718-1.736-.21c-6.311-.806-11.826-3.54-16.509-8.136l-2.29-2.279-.589 1.684c-1.248 3.753-.45 7.716 2.151 10.38 1.387 1.474 1.074 1.684-1.317.806-.833-.28-1.562-.49-1.631-.386-.242.247.589 3.437 1.248 4.699.903 1.754 2.74 3.47 4.752 4.489l1.701.807-2.012.034c-1.941 0-2.011.035-1.803.772.694 2.281 3.434 4.701 6.486 5.754l2.15.735-1.872 1.121c-2.774 1.617-6.035 2.525-9.296 2.594-1.562.035-2.845.176-2.845.281 0 .351 4.233 2.312 6.694 3.087 7.388 2.279 16.164 1.295 22.754-2.596 4.684-2.771 9.364-8.276 11.55-13.608 1.181-2.838 2.36-8.03 2.36-10.518 0-1.614.104-1.824 2.047-3.753 1.145-1.122 2.218-2.349 2.428-2.7.346-.667.311-.667-1.458-.071-2.948 1.052-3.365.912-1.907-.666 1.076-1.123 2.359-3.157 2.359-3.752 0-.104-.521.069-1.11.385-.624.351-2.013.877-3.054 1.191l-1.871.598-1.699-1.159c-.938-.631-2.254-1.332-2.948-1.542-1.773-.489-4.479-.42-6.075.142zm-6.897 69.054c-27.425 0-49.659-22.233-49.659-49.659s22.234-49.659 49.659-49.659c27.426 0 49.659 22.233 49.659 49.659s-22.233 49.659-49.659 49.659z"/></symbol><symbol viewBox="0 0 100 100" id="icon__view"><title>view</title><path d="M50 24c13.3 0.1 25.2 4.5 36.2 11.5 3.8 2.4 7.3 5.2 10.8 8.1 3.1 2.6 3.1 6.2 0 8.8C85.5 62.6 72.4 69.7 57 71.8c-12.8 1.8-24.8-1.3-36.2-7 -6.5-3.2-12.5-7.1-17.6-12.3 -3.2-3.2-3.2-6.2 0.3-9.2 11.4-9.8 24.3-16.6 39.4-18.9 1.3-0.2 2.5-0.3 3.8-0.4C47.7 24 48.9 24 50 24zM42.3 35.8c-10.3 2-19 6.4-27.3 12.4 8 5.8 16.5 10 26.1 11.9C33.4 50.4 33.6 44.6 42.3 35.8zM59.9 59.9c9.2-2.2 17.3-6.3 24.9-11.8 -8-5.7-16.2-9.9-25.9-11.9C67 45.8 67.2 50.7 59.9 59.9z"/></symbol><symbol viewBox="0 0 100 100" id="icon__youtube"><title>youtube</title><path d="M50 99.659c-27.425 0-49.659-22.233-49.659-49.659s22.234-49.659 49.659-49.659c27.426 0 49.659 22.233 49.659 49.659s-22.233 49.659-49.659 49.659z"/><g fill="#fff"><path d="M76.169 49.861c-2.777-2.775-26.18-2.811-26.18-2.809 0-.002-23.397.036-26.182 2.807-2.784 2.78-2.791 16.492-2.791 16.573 0 .105.007 13.795 2.791 16.575 2.782 2.771 26.182 2.831 26.182 2.831s23.402-.061 26.18-2.831c2.795-2.787 2.817-16.575 2.817-16.575 0-.078-.031-13.791-2.817-16.571zm-37.307 8.081h-3.94v19.922h-3.812v-19.922h-3.94v-3.387h11.692v3.387zm11.138 19.919h-3.375v-1.888c-.629.699-1.274 1.231-1.956 1.592-.676.37-1.328.547-1.964.547-.784 0-1.366-.251-1.77-.768-.39-.516-.591-1.274-.591-2.303v-14.377h3.377v13.19c0 .41.072.701.208.885.15.184.381.273.694.273.249 0 .567-.121.945-.365.381-.242.726-.549 1.05-.92v-13.065h3.382v17.199zm12.271-3.549c0 1.216-.265 2.148-.795 2.8-.524.651-1.297.97-2.301.97-.665 0-1.252-.12-1.768-.372-.518-.25-1.005-.633-1.444-1.164v1.319h-3.418v-23.309h3.418v7.506c.459-.524.938-.925 1.449-1.196.518-.274 1.035-.409 1.559-.409 1.073 0 1.889.364 2.451 1.095.568.734.849 1.808.849 3.217v9.543zm11.722-4.627h-6.466v3.231c0 .907.11 1.534.329 1.887.229.351.607.521 1.147.521.56 0 .951-.148 1.174-.443.221-.296.338-.948.338-1.963v-.784h3.476v.883c0 1.766-.421 3.091-1.271 3.989-.843.89-2.11 1.33-3.792 1.33-1.513 0-2.709-.468-3.577-1.415-.867-.94-1.311-2.242-1.311-3.902v-7.721c0-1.487.481-2.708 1.438-3.646.954-.938 2.187-1.408 3.703-1.408 1.548 0 2.736.437 3.569 1.306.832.867 1.243 2.116 1.243 3.749v4.386zM69.037 63.251c-.537 0-.926.15-1.162.473-.235.302-.35.822-.35 1.541v1.736h2.988v-1.736c0-.721-.121-1.239-.358-1.541-.222-.323-.605-.473-1.118-.473zM57.379 63.19c-.244 0-.481.049-.717.166-.235.112-.467.288-.696.523v10.716c.272.275.541.486.803.607.261.121.529.186.815.186.415 0 .717-.121.912-.365.193-.239.296-.629.296-1.183v-8.88c0-.58-.121-1.023-.358-1.321-.246-.301-.601-.449-1.055-.449zM69.023 39.84h-3.808v-2.092c-.694.768-1.427 1.362-2.188 1.76-.76.403-1.494.605-2.208.605-.888 0-1.544-.282-1.989-.847-.443-.564-.667-1.409-.667-2.54v-15.831h3.8v14.523c0 .448.088.773.247.972.154.202.419.303.772.303.278 0 .634-.135 1.062-.399.426-.264.82-.604 1.172-1.021v-14.378h3.808v18.945h-.001zM53.566 21.795c-1.011-.918-2.303-1.377-3.877-1.377-1.727 0-3.106.437-4.13 1.306-1.028.867-1.541 2.037-1.539 3.505v9.818c0 1.61.502 2.889 1.496 3.843 1.001.95 2.336 1.427 3.998 1.427 1.732 0 3.086-.462 4.08-1.384.983-.925 1.476-2.193 1.476-3.812v-9.784c.001-1.445-.503-2.625-1.504-3.542zm-2.372 13.61c0 .504-.15.902-.455 1.196-.307.287-.712.432-1.228.432-.506 0-.894-.139-1.163-.423-.269-.289-.408-.688-.408-1.205v-10.319c0-.414.15-.75.437-1.006.294-.253.668-.38 1.136-.38.5 0 .908.125 1.216.38.312.256.466.592.466 1.006v10.319h-.001zM33.654 14.162h-4.319l5.105 15.505v10.173h4.285v-10.655l4.988-15.023h-4.359l-2.647 10.263h-.269z"/></g></symbol></svg>